/* XPM */
static char * close_active_xpm[] = {
"14 14 83 1",
" 	c None",
".	c #6C6C6C",
"+	c #6D6D6D",
"@	c #747474",
"#	c #757575",
"$	c #7F7F7F",
"%	c #898989",
"&	c #8B8B8B",
"*	c #6F6F6F",
"=	c #424242",
"-	c #3D3C3C",
";	c #999999",
">	c #7B7B7B",
",	c #3E3535",
"'	c #A29090",
")	c #E4D8D9",
"!	c #E4DADA",
"~	c #A38E91",
"{	c #3F3737",
"]	c #A6A6A6",
"^	c #A7A7A7",
"/	c #524A4A",
"(	c #863639",
"_	c #C86766",
":	c #D27E79",
"<	c #C96665",
"[	c #853639",
"}	c #534B4B",
"|	c #B5B5B5",
"1	c #B6B6B6",
"2	c #5A2429",
"3	c #B02C28",
"4	c #C0382F",
"5	c #C84E44",
"6	c #C84D44",
"7	c #C33930",
"8	c #AF2C28",
"9	c #5E2428",
"0	c #C5C5C5",
"a	c #701D20",
"b	c #CF453D",
"c	c #E0635A",
"d	c #EB7971",
"e	c #ED7B73",
"f	c #E2675C",
"g	c #D3473E",
"h	c #6F1C1F",
"i	c #C4C4C4",
"j	c #D4D4D4",
"k	c #815250",
"l	c #D6564E",
"m	c #F38A80",
"n	c #F4998F",
"o	c #F49A92",
"p	c #F38C82",
"q	c #D9574E",
"r	c #81504D",
"s	c #DEDEDE",
"t	c #E1E1E1",
"u	c #AFA6A5",
"v	c #974844",
"w	c #E88880",
"x	c #F7B5AB",
"y	c #F7B7AD",
"z	c #E98B83",
"A	c #9B4A45",
"B	c #B0A6A5",
"C	c #ECECEC",
"D	c #EDEDED",
"E	c #EAEBEB",
"F	c #A69A99",
"G	c #865E5B",
"H	c #92645D",
"I	c #956761",
"J	c #89605C",
"K	c #F7F7F7",
"L	c #F3F4F4",
"M	c #DBDADB",
"N	c #BCB7B7",
"O	c #BDB7B7",
"P	c #DBDBDB",
"Q	c #F3F3F3",
"R	c #FFFFFF",
"     .++.     ",
"   @######@   ",
"  $$$$$$$$$$  ",
" %&&*=--=*&&% ",
" ;;>,')!~{>;; ",
"]^^/(_::<[}^^]",
"|1123456789111",
"000abcdefgh00i",
"jjjklmnopqrjjj",
"sttuvwxyzABtts",
" CDEFGHIJFEDC ",
"  KKLMNOPQKK  ",
"   RRRRRRRR   ",
"     RRRR     "};
