/* XPM */
static char * close_pressed_xpm[] = {
"14 14 82 1",
" 	c None",
".	c #6C6C6C",
"+	c #6D6D6D",
"@	c #747474",
"#	c #757575",
"$	c #7F7F7F",
"%	c #898989",
"&	c #8B8B8B",
"*	c #6F6F6F",
"=	c #353535",
"-	c #1A1919",
";	c #999999",
">	c #7B7B7B",
",	c #1C1615",
"'	c #7A6868",
")	c #BCB0B1",
"!	c #BCB2B2",
"~	c #7B6669",
"{	c #1D1616",
"]	c #A6A6A6",
"^	c #A7A7A7",
"/	c #383636",
"(	c #5F1817",
"_	c #A14240",
":	c #AB5752",
"<	c #A2403F",
"[	c #5E1817",
"}	c #B5B5B5",
"|	c #B6B6B6",
"1	c #361312",
"2	c #8B2320",
"3	c #9B2723",
"4	c #A22D27",
"5	c #9E2724",
"6	c #8A2320",
"7	c #3B1312",
"8	c #C5C5C5",
"9	c #4B1312",
"0	c #A92B27",
"a	c #B93F37",
"b	c #C4534C",
"c	c #C6554D",
"d	c #BC4238",
"e	c #AD2C28",
"f	c #4A1312",
"g	c #C4C4C4",
"h	c #D4D4D4",
"i	c #5C2D2B",
"j	c #B0342E",
"k	c #CB635A",
"l	c #CC7168",
"m	c #CD726A",
"n	c #CB655B",
"o	c #B3352E",
"p	c #5C2B29",
"q	c #DEDEDE",
"r	c #E1E1E1",
"s	c #948A8A",
"t	c #702420",
"u	c #C06159",
"v	c #CF8D84",
"w	c #CF8F85",
"x	c #C1645C",
"y	c #742521",
"z	c #ECECEC",
"A	c #EDEDED",
"B	c #E2E3E3",
"C	c #837876",
"D	c #5E3734",
"E	c #6B3D36",
"F	c #6E3F39",
"G	c #613934",
"H	c #837877",
"I	c #E3E3E3",
"J	c #F7F7F7",
"K	c #EBEBEB",
"L	c #C2C1C3",
"M	c #999493",
"N	c #9A9494",
"O	c #C2C2C2",
"P	c #EAEBEB",
"Q	c #FFFFFF",
"     .++.     ",
"   @######@   ",
"  $$$$$$$$$$  ",
" %&&*=--=*&&% ",
" ;;>,')!~{>;; ",
"]^^/(_::<[/^^]",
"}||12344567|||",
"88890abcdef88g",
"hhhijklmnophhh",
"qrrstuvwxysrrq",
" zABCDEFGHIAz ",
"  JJKLMNOPJJ  ",
"   QQQQQQQQ   ",
"     QQQQ     "};
