/* XPM */
static char * hide_active_xpm[] = {
"14 14 83 1",
" 	c None",
".	c #6C6C6C",
"+	c #6D6D6D",
"@	c #747474",
"#	c #757575",
"$	c #7F7F7F",
"%	c #898989",
"&	c #8B8B8B",
"*	c #6F6F6F",
"=	c #494141",
"-	c #4C383B",
";	c #4B393B",
">	c #999999",
",	c #7C7B7B",
"'	c #513334",
")	c #B79093",
"!	c #E7DDDC",
"~	c #B79092",
"{	c #523437",
"]	c #A6A6A6",
"^	c #A7A7A7",
"/	c #5A484A",
"(	c #A75639",
"_	c #E4A85E",
":	c #E8BA6C",
"<	c #E8B96B",
"[	c #E1A65D",
"}	c #AD583B",
"|	c #5E484A",
"1	c #B5B5B5",
"2	c #B6B6B6",
"3	c #743729",
"4	c #D47E3E",
"5	c #EA9847",
"6	c #ECA34A",
"7	c #EEA44A",
"8	c #EA9B48",
"9	c #D88340",
"0	c #7A3A28",
"a	c #C5C5C5",
"b	c #8D4D28",
"c	c #F4A84C",
"d	c #F8BB52",
"e	c #F9C758",
"f	c #FAC959",
"g	c #F8BF52",
"h	c #F6AA4D",
"i	c #8E4D28",
"j	c #C4C4C4",
"k	c #D4D4D4",
"l	c #8F6F4A",
"m	c #F2B14E",
"n	c #FCDF65",
"o	c #FDEA76",
"p	c #FCED78",
"q	c #FDE166",
"r	c #F3B34F",
"s	c #91704A",
"t	c #DEDEDE",
"u	c #E1E1E1",
"v	c #B0A9A4",
"w	c #A27F37",
"x	c #E9DA65",
"y	c #FDF98F",
"z	c #EBE067",
"A	c #A58438",
"B	c #B2ABA5",
"C	c #ECECEC",
"D	c #EDEDED",
"E	c #EAEBEB",
"F	c #A8A296",
"G	c #89814E",
"H	c #96944D",
"I	c #98964E",
"J	c #8B8650",
"K	c #A8A398",
"L	c #EAEAEB",
"M	c #F7F7F7",
"N	c #F3F3F4",
"O	c #DBDBDB",
"P	c #BDBCB5",
"Q	c #BDBCB4",
"R	c #FFFFFF",
"     .++.     ",
"   @######@   ",
"  $$$$$$$$$$  ",
" %&&*=-;=*&&% ",
" >>,')!!~{,>> ",
"]^^/(_:<[}|^^]",
"12234567890222",
"aaabcdefghiaaj",
"kkklmnopqrskkk",
"tuuvwxyyzABuut",
" CDEFGHIJKLDC ",
"  MMNOPQONMM  ",
"   RRRRRRRR   ",
"     RRRR     "};
