/* XPM */
static char * hide_pressed_xpm[] = {
"14 14 86 1",
" 	c None",
".	c #6C6C6C",
"+	c #6D6D6D",
"@	c #747474",
"#	c #757575",
"$	c #7F7F7F",
"%	c #898989",
"&	c #8B8B8B",
"*	c #6F6F6F",
"=	c #353535",
"-	c #291518",
";	c #281618",
">	c #999999",
",	c #7B7B7B",
"'	c #2F1817",
")	c #8F686B",
"!	c #BFB5B4",
"~	c #8F686A",
"{	c #301817",
"]	c #A6A6A6",
"^	c #A7A7A7",
"/	c #403737",
"(	c #803120",
"_	c #BC803E",
":	c #C09249",
"<	c #C19149",
"[	c #B97E3D",
"}	c #853321",
"|	c #443737",
"1	c #B5B5B5",
"2	c #B6B6B6",
"3	c #501817",
"4	c #AD582F",
"5	c #C27238",
"6	c #C47C3B",
"7	c #C67D3B",
"8	c #C27439",
"9	c #B15D31",
"0	c #551917",
"a	c #C5C5C5",
"b	c #66281A",
"c	c #CC813D",
"d	c #D09442",
"e	c #D1A045",
"f	c #D2A246",
"g	c #D19843",
"h	c #CE833E",
"i	c #67291A",
"j	c #C4C4C4",
"k	c #D4D4D4",
"l	c #694A28",
"m	c #CA8A3F",
"n	c #D4B74C",
"o	c #D5C255",
"p	c #D4C657",
"q	c #D4BA4C",
"r	c #CB8C40",
"s	c #6B4B28",
"t	c #DEDEDE",
"u	c #E1E1E1",
"v	c #958E89",
"w	c #7A5927",
"x	c #C1B349",
"y	c #D5D16A",
"z	c #D5D16B",
"A	c #C3B94B",
"B	c #7D5D29",
"C	c #979089",
"D	c #ECECEC",
"E	c #EDEDED",
"F	c #E3E3E3",
"G	c #857F74",
"H	c #615A2A",
"I	c #6E6C2D",
"J	c #706E2D",
"K	c #635E2C",
"L	c #858175",
"M	c #E2E2E3",
"N	c #F7F7F7",
"O	c #EBEBEC",
"P	c #C2C2C3",
"Q	c #9A9991",
"R	c #9A9990",
"S	c #C2C2C2",
"T	c #EAEBEC",
"U	c #FFFFFF",
"     .++.     ",
"   @######@   ",
"  $$$$$$$$$$  ",
" %&&*=-;=*&&% ",
" >>,')!!~{,>> ",
"]^^/(_:<[}|^^]",
"12234567890222",
"aaabcdefghiaaj",
"kkklmnopqrskkk",
"tuuvwxyzABCuut",
" DEFGHIJKLMED ",
"  NNOPQRSTNN  ",
"   UUUUUUUU   ",
"     UUUU     "};
