/* XPM */
static char * maximize_inactive_xpm[] = {
"14 14 66 1",
" 	c None",
".	c #6C6C6C",
"+	c #6D6D6D",
"@	c #747474",
"#	c #757575",
"$	c #7F7F7F",
"%	c #898989",
"&	c #8B8B8B",
"*	c #6F6F6F",
"=	c #474747",
"-	c #444444",
";	c #999999",
">	c #7B7B7B",
",	c #464646",
"'	c #B0B0B0",
")	c #E9E9E9",
"!	c #EAEAEA",
"~	c #B1B1B1",
"{	c #A6A6A6",
"]	c #A7A7A7",
"^	c #545454",
"/	c #8F8F8F",
"(	c #D0D0D0",
"_	c #D9D9D9",
":	c #D8D8D8",
"<	c #CFCFCF",
"[	c #B5B5B5",
"}	c #B6B6B6",
"|	c #606060",
"1	c #C5C5C5",
"2	c #CDCDCD",
"3	c #CCCCCC",
"4	c #C8C8C8",
"5	c #B7B7B7",
"6	c #626262",
"7	c #767676",
"8	c #D2D2D2",
"9	c #DDDDDD",
"0	c #E6E6E6",
"a	c #E0E0E0",
"b	c #787878",
"c	c #C4C4C4",
"d	c #D4D4D4",
"e	c #8E8E8E",
"f	c #D1D1D1",
"g	c #F7F7F7",
"h	c #FBFBFB",
"i	c #FEFEFE",
"j	c #FAFAFA",
"k	c #DEDEDE",
"l	c #E1E1E1",
"m	c #B8B8B8",
"n	c #9C9C9C",
"o	c #FFFFFF",
"p	c #EBEBEB",
"q	c #A0A0A0",
"r	c #ECECEC",
"s	c #EDEDED",
"t	c #929292",
"u	c #9B9B9B",
"v	c #969696",
"w	c #B3B3B3",
"x	c #F3F3F3",
"y	c #DFDFDF",
"z	c #C0C0C0",
"A	c #C1C1C1",
"     .++.     ",
"   @######@   ",
"  $$$$$$$$$$  ",
" %&&*=--=*&&% ",
" ;;>,')!~=>;; ",
"{]]^/(_:</^]]{",
"[}}|}123456}}}",
"1117890)a8b11c",
"dddefghijdeddd",
"kllmn0oopqmllk",
" rsp~t;uvwpsr ",
"  ggxyzAyxgg  ",
"   oooooooo   ",
"     oooo     "};
