/* XPM */
static char * maximize_pressed_xpm[] = {
"14 14 81 1",
" 	c None",
".	c #6C6C6C",
"+	c #6D6D6D",
"@	c #747474",
"#	c #757575",
"$	c #7F7F7F",
"%	c #898989",
"&	c #8B8B8B",
"*	c #6F6F6F",
"=	c #353535",
"-	c #181718",
";	c #999999",
">	c #7B7B7B",
",	c #151515",
"'	c #646D6A",
")	c #B1B5B4",
"!	c #B2B6B4",
"~	c #66706B",
"{	c #A6A6A6",
"]	c #A7A7A7",
"^	c #363636",
"/	c #1C4418",
"(	c #5C8F3B",
"_	c #739D4A",
":	c #739D49",
"<	c #5C903C",
"[	c #1D4518",
"}	c #B5B5B5",
"|	c #B6B6B6",
"1	c #122512",
"2	c #2B7025",
"3	c #45862D",
"4	c #528F31",
"5	c #45882E",
"6	c #2C7326",
"7	c #112511",
"8	c #C5C5C5",
"9	c #123311",
"0	c #519432",
"a	c #68A53A",
"b	c #7AB240",
"c	c #7AB441",
"d	c #6BA93B",
"e	c #539633",
"f	c #133813",
"g	c #C4C4C4",
"h	c #D4D4D4",
"i	c #395027",
"j	c #5D9C36",
"k	c #8DC84C",
"l	c #9ACC58",
"m	c #99CC58",
"n	c #8FCB4E",
"o	c #5D9E37",
"p	c #3B5327",
"q	c #DEDEDE",
"r	c #E1E1E1",
"s	c #8D9189",
"t	c #3D6523",
"u	c #88BF4B",
"v	c #B4CF6D",
"w	c #B6CF6F",
"x	c #8DC54D",
"y	c #406925",
"z	c #ECECEC",
"A	c #EDEDED",
"B	c #E3E3E3",
"C	c #7A8275",
"D	c #485E2C",
"E	c #556C2D",
"F	c #576E2F",
"G	c #4A632E",
"H	c #7D8375",
"I	c #F7F7F7",
"J	c #EBEBEC",
"K	c #C2C2C3",
"L	c #969891",
"M	c #979A91",
"N	c #C2C2C2",
"O	c #EBEAEB",
"P	c #FFFFFF",
"     .++.     ",
"   @######@   ",
"  $$$$$$$$$$  ",
" %&&*=--=*&&% ",
" ;;>,')!~,>;; ",
"{]]^/(_:<[^]]{",
"}||12344567|||",
"88890abcdef88g",
"hhhijklmnophhh",
"qrrstuvwxysrrq",
" zABCDEFGHBAz ",
"  IIJKLMNOII  ",
"   PPPPPPPP   ",
"     PPPP     "};
