/* XPM */
static char * maximize_active_xpm[] = {
"14 14 83 1",
" 	c None",
".	c #6C6C6C",
"+	c #6D6D6D",
"@	c #747474",
"#	c #757575",
"$	c #7F7F7F",
"%	c #898989",
"&	c #8B8B8B",
"*	c #6F6F6F",
"=	c #424142",
"-	c #3B3A3B",
";	c #999999",
">	c #7B7B7B",
",	c #353738",
"'	c #8C9592",
")	c #D9DDDC",
"!	c #DADEDC",
"~	c #8E9893",
"{	c #373738",
"]	c #A6A6A6",
"^	c #A7A7A7",
"/	c #4A4D4B",
"(	c #416B3B",
"_	c #83B75F",
":	c #9AC46F",
"<	c #9BC46E",
"[	c #83B85F",
"}	c #426C3B",
"|	c #494D4B",
"1	c #B5B5B5",
"2	c #B6B6B6",
"3	c #2E492B",
"4	c #4D9633",
"5	c #6BAC3C",
"6	c #79B540",
"7	c #79B640",
"8	c #6BAF3D",
"9	c #4E9934",
"0	c #2D492A",
"a	c #C5C5C5",
"b	c #33581F",
"c	c #77BA41",
"d	c #8FCB49",
"e	c #A1D95C",
"f	c #A2DB5E",
"g	c #93D04A",
"h	c #79BC42",
"i	c #335D20",
"j	c #C4C4C4",
"k	c #D4D4D4",
"l	c #5F754B",
"m	c #84C245",
"n	c #B5F06C",
"o	c #C2F47C",
"p	c #C1F47B",
"q	c #B6F26E",
"r	c #84C445",
"s	c #60774B",
"t	c #DEDEDE",
"u	c #E1E1E1",
"v	c #A8ACA4",
"w	c #648C39",
"x	c #B0E66C",
"y	c #DCF693",
"z	c #DEF795",
"A	c #B4EC6F",
"B	c #67903A",
"C	c #ECECEC",
"D	c #EDEDED",
"E	c #EBEBEB",
"F	c #9DA497",
"G	c #6F8651",
"H	c #7D9450",
"I	c #7F9652",
"J	c #728A53",
"K	c #9FA597",
"L	c #EBEAEB",
"M	c #F7F7F7",
"N	c #F3F3F4",
"O	c #DBDBDB",
"P	c #B9BCB5",
"Q	c #BABDB5",
"R	c #FFFFFF",
"     .++.     ",
"   @######@   ",
"  $$$$$$$$$$  ",
" %&&*=--=*&&% ",
" ;;>,')!~{>;; ",
"]^^/(_:<[}|^^]",
"12234567890222",
"aaabcdefghiaaj",
"kkklmnopqrskkk",
"tuuvwxyzABvuut",
" CDEFGHIJKLDC ",
"  MMNOPQONMM  ",
"   RRRRRRRR   ",
"     RRRR     "};
