/* XPM */
static char * menu_pressed_xpm[] = {
"20 13 90 1",
" 	c None",
".	c #777777",
"+	c #787878",
"@	c #818181",
"#	c #8D8D8D",
"$	c #9B9B9B",
"%	c #838485",
"&	c #484B61",
"*	c #344195",
"=	c #2F3186",
"-	c #2E3488",
";	c #2E3287",
">	c #2D3287",
",	c #2F3286",
"'	c #324195",
")	c #494C63",
"!	c #AAAAAA",
"~	c #ABABAB",
"{	c #919090",
"]	c #304175",
"^	c #5D99E3",
"/	c #ACD0F0",
"(	c #B0D4F0",
"_	c #B0D2F1",
":	c #AFD3F1",
"<	c #AFD3F0",
"[	c #ABCFEF",
"}	c #5D98E4",
"|	c #314176",
"1	c #BCBCBC",
"2	c #757984",
"3	c #1B51AC",
"4	c #5498D9",
"5	c #5B97D4",
"6	c #5A96D9",
"7	c #5996D9",
"8	c #5997D9",
"9	c #5B97DA",
"0	c #5B98D5",
"a	c #1B50AF",
"b	c #CCCCCC",
"c	c #76828C",
"d	c #2769B7",
"e	c #5A9CE6",
"f	c #579CE7",
"g	c #5AA1ED",
"h	c #599FED",
"i	c #5AA0EC",
"j	c #5AA2ED",
"k	c #5BA1ED",
"l	c #579DE7",
"m	c #5A9BE5",
"n	c #77838C",
"o	c #DADADA",
"p	c #DCDCDC",
"q	c #939697",
"r	c #2F567F",
"s	c #6BAEEF",
"t	c #80C4F2",
"u	c #87CCF3",
"v	c #87CBF3",
"w	c #86CBF3",
"x	c #80C5F2",
"y	c #6AAEEF",
"z	c #2F5680",
"A	c #EBEBEB",
"B	c #CDCCCB",
"C	c #6A7178",
"D	c #4D739C",
"E	c #8DDAF5",
"F	c #A3F4F9",
"G	c #A4F5F9",
"H	c #A3F1F9",
"I	c #A2F3F9",
"J	c #4D759C",
"K	c #6B717A",
"L	c #F7F7F7",
"M	c #F2F2F2",
"N	c #CBCAC8",
"O	c #8D8E8F",
"P	c #79878E",
"Q	c #647575",
"R	c #606E70",
"S	c #616E70",
"T	c #607070",
"U	c #647475",
"V	c #7A888E",
"W	c #8E8F91",
"X	c #CAC8C7",
"Y	c #FFFFFF",
"    .++++++++++.    ",
"  @@@@@@@@@@@@@@@@  ",
" ################## ",
" $$$%&*=-;;>,')%$$$ ",
"!~~{]^/(_:<<:[}|{~~!",
"111234567889604a2111",
"bbbcdefghiijklmdnbbb",
"oppqrstuvwvuvxyzqppo",
"AAABCDEFGFHGIEJKBAAA",
" LLMNOPQRRSTUVWXMLL ",
"  YYYYYYYYYYYYYYYY  ",
"    YYYYYYYYYYYY    ",
"                    "};
