/* XPM */
static char * menu_inactive_xpm[] = {
"20 13 60 1",
" 	c None",
".	c #787878",
"+	c #818181",
"@	c #8D8D8D",
"#	c #9B9B9B",
"$	c #848484",
"%	c #808080",
"&	c #757575",
"*	c #676767",
"=	c #6F6F6F",
"-	c #707070",
";	c #717171",
">	c #686868",
",	c #828282",
"'	c #ABABAB",
")	c #919191",
"!	c #C2C2C2",
"~	c #E7E7E7",
"{	c #F5F5F5",
"]	c #F4F4F4",
"^	c #F3F3F3",
"/	c #BCBCBC",
"(	c #858585",
"_	c #A5A5A5",
":	c #D0D0D0",
"<	c #D1D1D1",
"[	c #CFCFCF",
"}	c #A4A4A4",
"|	c #CCCCCC",
"1	c #8B8B8B",
"2	c #AAAAAA",
"3	c #D6D6D6",
"4	c #D8D8D8",
"5	c #DDDDDD",
"6	c #DFDFDF",
"7	c #DEDEDE",
"8	c #8A8A8A",
"9	c #DBDBDB",
"0	c #DCDCDC",
"a	c #999999",
"b	c #888888",
"c	c #E6E6E6",
"d	c #FFFFFF",
"e	c #FDFDFD",
"f	c #FCFCFC",
"g	c #FEFEFE",
"h	c #EBEBEB",
"i	c #CBCBCB",
"j	c #AFAFAF",
"k	c #EDEDED",
"l	c #F7F7F7",
"m	c #F2F2F2",
"n	c #C8C8C8",
"o	c #979797",
"p	c #868686",
"q	c #727272",
"r	c #6D6D6D",
"s	c #6E6E6E",
"t	c #6C6C6C",
"u	c #C6C6C6",
"    ............    ",
"  ++++++++++++++++  ",
" @@@@@@@@@@@@@@@@@@ ",
" ###$%&*=-;->&,$### ",
"''')&!~{{]^{{~!&)'''",
"///(_:<:::[:<::}(///",
"|||123456756734'8|||",
"900abc{deffeg{~ba009",
"hhhi,jkddddddkj,ihhh",
" llmnopqrs-tq(oumll ",
"  dddddddddddddddd  ",
"    dddddddddddd    ",
"                    "};
